<?xml version="1.0" standalone="no"?>
<!DOCTYPE svg PUBLIC "-//W3C//DTD SVG 20010904//EN"
 "http://www.w3.org/TR/2001/REC-SVG-20010904/DTD/svg10.dtd">
<svg version="1.0" xmlns="http://www.w3.org/2000/svg"
 width="260.000000pt" height="260.000000pt" viewBox="0 0 260.000000 260.000000"
 preserveAspectRatio="xMidYMid meet">
<metadata>
Created by potrace 1.14, written by Peter Selinger 2001-2017
</metadata>
<g transform="translate(0.000000,260.000000) scale(0.100000,-0.100000)"
fill="#000000" stroke="none">
<path d="M358 1975 c-2 -2 -59 -6 -128 -10 -69 -4 -136 -8 -150 -9 l-25 -2 -3
-692 c-1 -381 1 -693 5 -694 98 -20 660 -31 773 -15 159 22 274 82 329 171 42
67 66 243 47 334 -22 102 -111 207 -206 244 l-58 22 55 36 c101 67 145 163
139 304 -4 90 -14 121 -62 182 -46 57 -171 113 -279 124 -29 3 -434 7 -437 5z
m388 -293 c72 -37 97 -143 53 -222 -37 -66 -62 -74 -246 -75 l-163 -1 0 157 0
158 38 4 c20 2 91 3 157 2 101 -1 127 -5 161 -23z m4 -546 c99 -21 147 -146
95 -246 -29 -57 -87 -74 -255 -77 -80 -1 -157 0 -172 4 l-28 5 0 162 0 162
163 -1 c89 -1 178 -5 197 -9z"/>
<path d="M2255 1908 c-65 -134 -191 -295 -342 -438 -53 -49 -99 -87 -102 -82
-3 4 -27 25 -53 46 l-48 38 0 244 0 244 -170 0 -170 0 0 -700 0 -700 170 0
170 0 0 251 0 251 68 -58 c37 -32 72 -63 78 -69 6 -5 35 -30 64 -55 29 -25 58
-50 64 -55 6 -6 40 -35 75 -65 35 -30 76 -66 90 -79 41 -36 151 -99 206 -116
28 -9 84 -18 126 -20 l77 -5 1 175 0 175 -45 0 c-83 0 -206 72 -374 220 -35
30 -71 61 -82 68 -17 13 -15 17 39 58 136 106 289 277 362 404 33 59 91 180
91 192 0 12 -238 138 -258 138 -4 0 -20 -28 -37 -62z"/>
</g>
</svg>
