<svg width="291" height="44" viewBox="0 0 291 44" fill="none" xmlns="http://www.w3.org/2000/svg">
<path d="M26.625 39.9688C25.1042 41.1771 23.125 42.1146 20.6875 42.7812C18.25 43.4479 15.25 43.7812 11.6875 43.7812C8.14583 43.7812 4.375 43.4583 0.375 42.8125V1.625C4.41667 0.979167 7.91667 0.65625 10.875 0.65625C13.8542 0.65625 16.2917 0.9375 18.1875 1.5C20.1042 2.0625 21.6667 2.82292 22.875 3.78125C25.25 5.63542 26.4375 8.04167 26.4375 11C26.4375 13.9375 25.3646 16.375 23.2188 18.3125C25.7604 19.1042 27.7292 20.6042 29.125 22.8125C30.3958 24.7917 31.0312 26.9896 31.0312 29.4062C31.0312 31.8021 30.6771 33.8542 29.9688 35.5625C29.2812 37.2708 28.1667 38.7396 26.625 39.9688ZM8.65625 17.1562C9.53125 17.3021 10.625 17.375 11.9375 17.375C13.25 17.375 14.3229 17.2083 15.1562 16.875C16.0104 16.5208 16.6667 16.0833 17.125 15.5625C17.875 14.7083 18.25 13.5208 18.25 12C18.25 8.8125 16.375 7.21875 12.625 7.21875C11.0417 7.21875 9.71875 7.28125 8.65625 7.40625V17.1562ZM13.2812 23.8438C11.5312 23.8438 9.98958 23.9583 8.65625 24.1875V36.4688C10.1146 36.8438 11.6458 37.0312 13.25 37.0312C14.8542 37.0312 16.2604 36.8438 17.4688 36.4688C18.6979 36.0729 19.7292 35.5417 20.5625 34.875C22.25 33.5 23.0938 31.75 23.0938 29.625C23.0938 25.7708 19.8229 23.8438 13.2812 23.8438ZM45.7812 43.1875C44.3438 43.0625 42.5104 43 40.2812 43H37.8125V1.3125L39.0625 1.375C39.9375 1.41667 40.5938 1.4375 41.0312 1.4375H41.9375C43.7708 1.4375 45.0521 1.35417 45.7812 1.1875V18.8438L58.4375 1.3125C59.7708 1.39583 60.8958 1.4375 61.8125 1.4375H63.5312C65.6771 1.4375 67.2083 1.35417 68.125 1.1875L56.0625 16.9375L67.9375 40.5C68.4375 41.6458 68.9062 42.4792 69.3438 43H67.4375C63.0417 43 60.3021 43.0833 59.2188 43.25C58.9896 41.8542 58.6771 40.6354 58.2812 39.5938L50.3125 24.4062L45.7812 30.3438V43.1875ZM83.5625 43.1875C82.5625 43.0625 80.6354 43 77.7812 43H75.2812V1.3125C76.6146 1.39583 78.0833 1.4375 79.6875 1.4375C81.2917 1.4375 82.4271 1.35417 83.0938 1.1875L93.5938 19.0312L103.688 1.1875C104.354 1.35417 105.625 1.4375 107.5 1.4375C109.375 1.4375 110.979 1.39583 112.312 1.3125V43H109.812C106.958 43 105.031 43.0625 104.031 43.1875V15.1875L93.8125 33.4688L83.5625 16.6562V43.1875ZM126.656 38.0625C124.76 36.25 123.26 34.0729 122.156 31.5312C121.073 28.9896 120.531 26.2083 120.531 23.1875C120.531 20.1458 121.042 17.2708 122.062 14.5625C123.083 11.8542 124.542 9.46875 126.438 7.40625C128.333 5.34375 130.625 3.70833 133.312 2.5C136 1.27083 139.01 0.65625 142.344 0.65625C148.094 0.65625 152.938 2.46875 156.875 6.09375C161.083 9.96875 163.188 15.1979 163.188 21.7812C163.188 28.1562 161.021 33.4583 156.688 37.6875C154.021 40.2917 150.844 42.0833 147.156 43.0625C145.344 43.5417 143.219 43.7812 140.781 43.7812C138.365 43.7812 135.875 43.2812 133.312 42.2812C130.771 41.2812 128.552 39.875 126.656 38.0625ZM129.219 22.75C129.219 24.6875 129.542 26.4688 130.188 28.0938C130.833 29.7188 131.729 31.1146 132.875 32.2812C135.312 34.7396 138.448 35.9688 142.281 35.9688C145.927 35.9688 148.854 34.7917 151.062 32.4375C153.312 30 154.438 26.6771 154.438 22.4688C154.438 18.5104 153.365 15.2083 151.219 12.5625C148.906 9.72917 145.74 8.3125 141.719 8.3125C137.823 8.3125 134.729 9.75 132.438 12.625C130.292 15.3125 129.219 18.6875 129.219 22.75ZM189.031 43.125C188.365 43.0417 187.271 43 185.75 43H182.312C181.75 43 181.24 43.0208 180.781 43.0625L180.75 43C180.833 42.8542 180.875 42.6875 180.875 42.5C180.875 42.3125 180.854 42.1146 180.812 41.9062C180.792 41.6979 180.708 41.3229 180.562 40.7812C180.417 40.2396 180.188 39.4583 179.875 38.4375L178.562 34.25L166.938 1.3125C168.229 1.39583 169.875 1.4375 171.875 1.4375C173.875 1.4375 175.156 1.35417 175.719 1.1875L185.125 29.5938L193.375 1.3125C194.625 1.39583 196.167 1.4375 198 1.4375C200.5 1.4375 201.958 1.35417 202.375 1.1875L190.969 34.1562C190.969 34.1562 190.604 35.375 189.875 37.8125C189.271 39.8958 188.969 41.25 188.969 41.875C188.969 42.4792 189.01 42.8646 189.094 43.0312L189.031 43.125ZM209.531 1.3125C211.615 1.39583 212.875 1.4375 213.312 1.4375H215.562C216.667 1.4375 217.552 1.35417 218.219 1.1875L218.188 43H209.531V1.3125ZM250.844 35.5C252.135 35.5 253.031 35.375 253.531 35.125L253.656 35.1562L253.344 43H229.938V1.21875C230.5 1.26042 231.125 1.29167 231.812 1.3125L234 1.375C235.458 1.41667 237.042 1.4375 238.75 1.4375C243.521 1.4375 248.24 1.35417 252.906 1.1875C252.677 3.02083 252.562 5.46875 252.562 8.53125C252.562 8.86458 252.583 9.11458 252.625 9.28125L252.562 9.375C251.479 9.0625 249.938 8.90625 247.938 8.90625H238.094V16.875H245.5C247.792 16.875 249.167 16.8125 249.625 16.6875L249.719 24.4062C248.719 24.3021 247.427 24.25 245.844 24.25H238.094V35.5H250.844ZM287.094 3.75L286.5 12.9375L286.281 13C284.74 10.6875 282.115 9.1875 278.406 8.5C277.24 8.27083 276.115 8.15625 275.031 8.15625C273.969 8.15625 273.052 8.25 272.281 8.4375C271.531 8.625 270.885 8.89583 270.344 9.25C269.198 10 268.625 10.9792 268.625 12.1875C268.625 13.7708 269.125 14.9583 270.125 15.75C271.375 16.7083 273.448 17.3854 276.344 17.7812C279.24 18.1562 281.562 18.6771 283.312 19.3438C285.062 20.0104 286.5 20.8542 287.625 21.875C289.75 23.7917 290.812 26.5 290.812 30C290.812 34.5833 289.083 38.1146 285.625 40.5938C282.667 42.7188 278.938 43.7812 274.438 43.7812C270.812 43.7812 267.229 43.0938 263.688 41.7188C262.521 41.2604 261.5 40.7292 260.625 40.125L260.969 29.6875L261.094 29.5938C263.677 34.0521 267.917 36.2812 273.812 36.2812C278 36.2812 280.771 35.2708 282.125 33.25C282.583 32.5625 282.812 31.8021 282.812 30.9688C282.812 30.1146 282.677 29.4167 282.406 28.875C282.135 28.3125 281.688 27.8333 281.062 27.4375C279.854 26.6458 277.823 26.1146 274.969 25.8438C272.115 25.5729 269.781 25.0625 267.969 24.3125C266.156 23.5625 264.708 22.6354 263.625 21.5312C261.667 19.5312 260.688 16.7396 260.688 13.1562C260.688 9.44792 261.99 6.44792 264.594 4.15625C267.24 1.82292 270.802 0.65625 275.281 0.65625C279.781 0.65625 283.719 1.6875 287.094 3.75Z" fill="#F9F9F9"/>
</svg>
