<svg width="242" height="42" viewBox="0 0 242 42" fill="none" xmlns="http://www.w3.org/2000/svg">
<path d="M28.784 29.544C28.784 37.1813 24.688 41 16.496 41H0.816V1.256H16.176C20.2293 1.256 23.2373 2.088 25.2 3.752C27.1627 5.37333 28.144 7.976 28.144 11.56C28.144 15.144 26.672 17.8747 23.728 19.752V20.136C27.0987 21.4587 28.784 24.5947 28.784 29.544ZM13.936 33.896C15.216 33.896 16.0693 33.6187 16.496 33.064C16.9653 32.4667 17.2 31.272 17.2 29.48C17.2 27.6453 16.9653 26.3653 16.496 25.64C16.0267 24.872 15.1733 24.488 13.936 24.488H11.888V33.896H13.936ZM14 18.28C14.9813 18.28 15.664 17.9813 16.048 17.384C16.432 16.7867 16.624 15.7413 16.624 14.248C16.624 12.712 16.4107 11.6453 15.984 11.048C15.6 10.408 14.9173 10.088 13.936 10.088H11.888V18.28H14ZM60.6635 41H48.5675L43.7675 26.024H43.1275V41H32.5035V1.256H43.1275V17.896H43.7675L49.5275 1.256H61.3035L53.5595 21.8L60.6635 41ZM102.03 41H91.982V20.264H91.406L87.63 41H77.326L73.742 20.264H73.102V41H63.182L64.526 1.256H78.926L82.51 22.76H83.022L86.478 1.256H100.686L102.03 41ZM109.622 5.416C112.096 2.216 116.128 0.615997 121.718 0.615997C127.307 0.615997 131.296 2.19466 133.686 5.352C136.118 8.50933 137.333 13.6507 137.333 20.776C137.333 27.8587 136.096 33.1067 133.622 36.52C131.147 39.9333 127.136 41.64 121.59 41.64C116.043 41.64 112.054 39.9547 109.622 36.584C107.19 33.2133 105.974 27.9867 105.974 20.904C105.974 13.7787 107.19 8.616 109.622 5.416ZM126.326 20.776C126.326 16.8507 126.006 14.2053 125.366 12.84C124.768 11.432 123.51 10.728 121.59 10.728C119.712 10.728 118.496 11.432 117.942 12.84C117.387 14.2053 117.11 16.8293 117.11 20.712V22.248C117.11 26.3867 117.408 29.1173 118.006 30.44C118.646 31.72 119.904 32.36 121.782 32.36C123.702 32.36 124.939 31.7413 125.494 30.504C126.048 29.2667 126.326 26.7067 126.326 22.824V20.776ZM170.427 1.256L163.707 41H146.811L139.643 1.256H151.739L155.195 27.304H156.283L158.907 1.256H170.427ZM185.524 41H174.644V1.256H185.524V41ZM213.32 41H191.816V1.256H213.96L213.32 11.048H202.76V17H211.912V25.448H202.76V32.04H213.96L213.32 41ZM215.899 13.224C215.899 9.42667 217.008 6.376 219.227 4.072C221.446 1.768 224.475 0.615997 228.315 0.615997C232.198 0.615997 236.166 0.999997 240.219 1.768L238.939 12.008C234.715 11.0267 231.814 10.536 230.235 10.536C228.23 10.536 227.227 11.3467 227.227 12.968C227.227 13.608 227.696 14.2267 228.635 14.824C229.616 15.4213 230.79 16.0613 232.155 16.744C233.52 17.384 234.886 18.1733 236.251 19.112C237.616 20.008 238.768 21.3093 239.707 23.016C240.688 24.7227 241.179 26.6853 241.179 28.904C241.179 32.9573 240.091 36.0933 237.915 38.312C235.739 40.5307 232.646 41.64 228.635 41.64C224.667 41.64 220.784 41.0213 216.987 39.784L217.691 30.248C222.256 31.5707 225.435 32.232 227.227 32.232C229.019 32.232 229.915 31.4427 229.915 29.864C229.915 29.0533 229.424 28.3067 228.443 27.624C227.504 26.9413 226.352 26.2587 224.987 25.576C223.622 24.8933 222.235 24.104 220.827 23.208C219.462 22.312 218.288 21.0107 217.307 19.304C216.368 17.5973 215.899 15.5707 215.899 13.224Z" fill="#F9F9F9"/>
</svg>
