<svg width="290" height="47" viewBox="0 0 290 47" fill="none" xmlns="http://www.w3.org/2000/svg">
<path d="M0.544 46V1.328C2.80533 1.11467 4.81067 0.965332 6.56 0.879997C8.352 0.794665 9.97333 0.730666 11.424 0.688C12.9173 0.602665 14.3253 0.559998 15.648 0.559998C19.4027 0.559998 22.3893 0.943998 24.608 1.712C26.8693 2.43733 28.512 3.61067 29.536 5.232C30.6027 6.85333 31.136 8.96533 31.136 11.568C31.136 14.128 30.5173 16.3467 29.28 18.224C28.0853 20.0587 26.4213 21.36 24.288 22.128V22.192C27.1467 22.832 29.3653 24.1547 30.944 26.16C32.5653 28.1227 33.376 30.5973 33.376 33.584C33.376 35.888 33.056 37.872 32.416 39.536C31.776 41.2 30.7733 42.544 29.408 43.568C28.0427 44.592 26.2507 45.36 24.032 45.872C21.856 46.384 19.168 46.64 15.968 46.64C14.944 46.64 13.9627 46.6187 13.024 46.576C12.128 46.576 11.2533 46.5547 10.4 46.512C9.58933 46.512 8.69333 46.4693 7.712 46.384C6.77333 46.3413 5.728 46.2773 4.576 46.192C3.424 46.1493 2.08 46.0853 0.544 46ZM6.112 21.04H18.144C19.7227 21.04 21.088 20.6987 22.24 20.016C23.392 19.3333 24.288 18.3947 24.928 17.2C25.568 15.9627 25.888 14.5547 25.888 12.976C25.888 11.1413 25.5253 9.648 24.8 8.496C24.1173 7.30133 22.9867 6.448 21.408 5.936C19.872 5.38133 17.8027 5.104 15.2 5.104C14.5173 5.104 13.92 5.104 13.408 5.104C12.896 5.104 12.384 5.12533 11.872 5.168C11.4027 5.168 10.912 5.18933 10.4 5.232C9.888 5.232 9.26933 5.25333 8.544 5.296C7.86133 5.33866 7.05067 5.40266 6.112 5.488V21.04ZM6.112 41.648C7.34933 41.7333 8.416 41.8187 9.312 41.904C10.2507 41.9467 11.0827 41.9893 11.808 42.032C12.5333 42.032 13.1947 42.0533 13.792 42.096C14.3893 42.096 15.008 42.096 15.648 42.096C18.6347 42.096 21.0027 41.8187 22.752 41.264C24.5013 40.6667 25.76 39.728 26.528 38.448C27.296 37.168 27.68 35.4827 27.68 33.392C27.68 30.832 26.8907 28.848 25.312 27.44C23.7333 26.032 21.4293 25.328 18.4 25.328H6.112V41.648ZM73.004 46.64C71.852 46.64 70.6787 46.4267 69.484 46C68.332 45.5733 67.0947 44.8693 65.772 43.888C64.492 42.9067 63.02 41.6267 61.356 40.048L45.612 24.752V46H40.044V1.2H45.612V17.712L63.084 34.48C64.4493 35.8027 65.6227 36.8907 66.604 37.744C67.628 38.5547 68.524 39.1947 69.292 39.664C70.1027 40.0907 70.828 40.4107 71.468 40.624C72.108 40.7947 72.7693 40.88 73.452 40.88C73.5373 40.88 73.6653 40.88 73.836 40.88C74.0067 40.88 74.156 40.88 74.284 40.88V46.512C74.028 46.5547 73.7933 46.576 73.58 46.576C73.3667 46.6187 73.1747 46.64 73.004 46.64ZM52.716 26.736L49.196 23.472C50.3907 22.6187 51.692 21.616 53.1 20.464C54.508 19.312 55.916 18.0533 57.324 16.688C58.7747 15.3227 60.204 13.8293 61.612 12.208C63.02 10.544 64.3213 8.77333 65.516 6.896C66.7533 5.01867 67.8413 3.01333 68.78 0.879997L73.068 2.992C72.0013 5.72266 70.6787 8.26133 69.1 10.608C67.564 12.9547 65.8787 15.1307 64.044 17.136C62.2093 19.0987 60.3107 20.8907 58.348 22.512C56.428 24.0907 54.5507 25.4987 52.716 26.736ZM79.7315 46V1.2H85.3635L99.6995 24.368L113.972 1.2H119.412V46H114.356V9.648L100.852 31.216H98.1635L84.7875 9.712V46H79.7315ZM146.018 42.16C147.468 42.16 148.876 41.9893 150.242 41.648C151.607 41.3067 152.866 40.7307 154.018 39.92C155.17 39.1093 156.172 38 157.026 36.592C157.879 35.184 158.54 33.4133 159.01 31.28C159.522 29.1467 159.778 26.5867 159.778 23.6C159.778 20.6133 159.522 18.0533 159.01 15.92C158.54 13.744 157.879 11.952 157.026 10.544C156.172 9.136 155.17 8.02667 154.018 7.216C152.866 6.40533 151.607 5.82933 150.242 5.488C148.876 5.14666 147.468 4.976 146.018 4.976C144.567 4.976 143.159 5.14666 141.794 5.488C140.471 5.82933 139.234 6.40533 138.082 7.216C136.93 8.02667 135.927 9.15733 135.074 10.608C134.22 12.016 133.538 13.7867 133.026 15.92C132.556 18.0533 132.322 20.6347 132.322 23.664C132.322 26.608 132.556 29.1253 133.026 31.216C133.538 33.3067 134.22 35.0773 135.074 36.528C135.927 37.936 136.93 39.0667 138.082 39.92C139.234 40.7307 140.471 41.3067 141.794 41.648C143.159 41.9893 144.567 42.16 146.018 42.16ZM146.018 46.64C143.842 46.64 141.794 46.4053 139.874 45.936C137.954 45.4667 136.183 44.72 134.562 43.696C132.94 42.6293 131.554 41.2213 130.402 39.472C129.25 37.68 128.354 35.4827 127.714 32.88C127.074 30.2773 126.754 27.184 126.754 23.6C126.754 20.016 127.052 16.9227 127.65 14.32C128.29 11.7173 129.186 9.54133 130.338 7.792C131.49 6 132.855 4.57066 134.434 3.504C136.055 2.43733 137.826 1.69066 139.746 1.264C141.708 0.794664 143.799 0.559998 146.018 0.559998C148.236 0.559998 150.327 0.794664 152.29 1.264C154.252 1.69066 156.023 2.43733 157.602 3.504C159.223 4.528 160.61 5.91466 161.762 7.664C162.914 9.41333 163.81 11.5893 164.45 14.192C165.09 16.7947 165.41 19.888 165.41 23.472C165.41 27.0987 165.09 30.2347 164.45 32.88C163.852 35.5253 162.956 37.744 161.762 39.536C160.61 41.2853 159.223 42.6933 157.602 43.76C156.023 44.784 154.252 45.5307 152.29 46C150.37 46.4267 148.279 46.64 146.018 46.64ZM182.499 46L167.011 1.328L172.899 1.008L185.699 40.496L198.371 1.008L204.259 1.328L188.835 46H182.499ZM209.168 46V1.2H214.672V46H209.168ZM223.732 46V1.2H252.148V6.128H229.3V20.208H250.612V25.072H229.3V41.072H253.236V46H223.732ZM287.319 2.544L286.167 6.896C285.399 6.64 284.524 6.40533 283.543 6.192C282.561 5.936 281.537 5.72267 280.471 5.552C279.404 5.38133 278.337 5.25333 277.271 5.168C276.204 5.08266 275.201 5.04 274.263 5.04C270.977 5.04 268.353 5.68 266.391 6.96C264.47 8.19733 263.51 9.94667 263.51 12.208C263.51 13.232 263.724 14.1707 264.151 15.024C264.62 15.8347 265.324 16.6027 266.263 17.328C267.244 18.0107 268.524 18.6933 270.103 19.376C271.681 20.0587 273.623 20.784 275.927 21.552C278.401 22.32 280.492 23.152 282.199 24.048C283.905 24.9013 285.292 25.84 286.359 26.864C287.468 27.8453 288.257 28.976 288.727 30.256C289.239 31.4933 289.495 32.9227 289.495 34.544C289.495 37.104 288.812 39.28 287.447 41.072C286.124 42.864 284.183 44.2507 281.623 45.232C279.063 46.1707 275.927 46.64 272.215 46.64C271.02 46.64 269.719 46.576 268.311 46.448C266.903 46.32 265.473 46.1493 264.023 45.936C262.572 45.68 261.185 45.4027 259.863 45.104C258.583 44.7627 257.473 44.4 256.535 44.016L257.751 39.664C258.732 40.048 259.841 40.3893 261.079 40.688C262.316 40.9867 263.596 41.2427 264.919 41.456C266.241 41.6693 267.543 41.84 268.823 41.968C270.145 42.096 271.361 42.16 272.471 42.16C274.945 42.16 277.015 41.8827 278.679 41.328C280.385 40.7733 281.665 39.9627 282.519 38.896C283.415 37.7867 283.863 36.4853 283.863 34.992C283.863 33.9253 283.607 32.9653 283.095 32.112C282.583 31.2587 281.793 30.4907 280.727 29.808C279.66 29.0827 278.273 28.3787 276.567 27.696C274.903 27.0133 272.897 26.2667 270.551 25.456C268.289 24.6453 266.348 23.8133 264.727 22.96C263.105 22.1067 261.783 21.168 260.759 20.144C259.777 19.12 259.031 17.9893 258.519 16.752C258.049 15.5147 257.815 14.1067 257.815 12.528C257.815 10.7787 258.177 9.17867 258.903 7.728C259.628 6.23466 260.673 4.95466 262.039 3.888C263.404 2.82133 265.111 2.01066 267.159 1.456C269.249 0.858664 271.617 0.559998 274.263 0.559998C275.799 0.559998 277.377 0.666664 278.999 0.879997C280.62 1.05066 282.156 1.28533 283.607 1.584C285.1 1.84 286.337 2.16 287.319 2.544Z" fill="#F9F9F9"/>
</svg>
