<svg width="230" height="44" viewBox="0 0 230 44" fill="none" xmlns="http://www.w3.org/2000/svg">
<path d="M20.424 20.344C23.1973 21.3253 24.584 23.5867 24.584 27.128V34.552C24.584 40.184 21.9387 43 16.648 43H0.2V1.592H16.136C21.4267 1.592 24.072 4.408 24.072 10.04V13.816C24.072 17.2293 22.856 19.4053 20.424 20.344ZM13.896 7.672H9.16V18.744H13.896C14.2373 18.744 14.5147 18.616 14.728 18.36C14.984 18.104 15.112 17.8053 15.112 17.464V8.952C15.112 8.61067 14.984 8.312 14.728 8.056C14.5147 7.8 14.2373 7.672 13.896 7.672ZM15.624 35.576V26.296C15.624 25.9547 15.496 25.656 15.24 25.4C15.0267 25.144 14.7493 25.016 14.408 25.016H9.16V36.856H14.408C14.7493 36.856 15.0267 36.728 15.24 36.472C15.496 36.216 15.624 35.9173 15.624 35.576ZM56.492 1.592L49.452 20.6L57.836 43H48.684L42.54 26.616H39.66V43H30.7V1.592H39.66V18.936H41.836L48.3 1.592H56.492ZM69.7835 43H60.8235V9.4C60.8235 3.768 63.4688 0.952 68.7595 0.952H73.4955C76.6102 0.952 78.8288 1.976 80.1515 4.024C81.3888 1.976 83.6075 0.952 86.8075 0.952H91.5435C96.8342 0.952 99.4795 3.768 99.4795 9.4V43H90.5195V8.632C90.5195 8.29067 90.3915 7.992 90.1355 7.736C89.9222 7.48 89.6448 7.352 89.3035 7.352H85.8475C85.5062 7.352 85.2075 7.48 84.9515 7.736C84.7382 7.992 84.6315 8.29067 84.6315 8.632V43H75.6715V8.632C75.6715 8.29067 75.5435 7.992 75.2875 7.736C75.0742 7.48 74.7968 7.352 74.4555 7.352H70.9995C70.6582 7.352 70.3595 7.48 70.1035 7.736C69.8902 7.992 69.7835 8.29067 69.7835 8.632V43ZM130.022 9.4V35.192C130.022 40.824 127.376 43.64 122.086 43.64H113.574C108.283 43.64 105.638 40.824 105.638 35.192V9.4C105.638 3.768 108.283 0.952 113.574 0.952H122.086C127.376 0.952 130.022 3.768 130.022 9.4ZM121.062 36.216V8.312C121.062 7.97066 120.934 7.672 120.678 7.416C120.464 7.16 120.187 7.032 119.846 7.032H115.814C115.472 7.032 115.174 7.16 114.918 7.416C114.704 7.672 114.598 7.97066 114.598 8.312V36.216C114.598 36.5573 114.704 36.856 114.918 37.112C115.174 37.368 115.472 37.496 115.814 37.496H119.846C120.187 37.496 120.464 37.368 120.678 37.112C120.934 36.856 121.062 36.5573 121.062 36.216ZM153.342 1.592H161.982L153.406 43H143.102L134.526 1.592H143.23L148.286 31.8L153.342 1.592ZM175.348 1.592V43H166.388V1.592H175.348ZM190.973 35.576H200.893V43H182.013V1.592H200.893V8.888H190.973V18.616H200.253V25.656H190.973V35.576ZM229.051 12.472H220.539V9.208C220.539 8.86667 220.411 8.568 220.155 8.312C219.942 8.056 219.664 7.928 219.323 7.928H215.803C215.462 7.928 215.163 8.056 214.907 8.312C214.694 8.568 214.587 8.86667 214.587 9.208V16.568C214.587 16.9093 214.694 17.208 214.907 17.464C215.163 17.72 215.462 17.848 215.803 17.848H221.563C226.854 17.9333 229.499 20.7493 229.499 26.296V35.192C229.499 40.824 226.854 43.64 221.563 43.64H214.011C208.72 43.64 206.075 40.824 206.075 35.192V30.904H214.587V35.512C214.587 35.8533 214.694 36.152 214.907 36.408C215.163 36.664 215.462 36.792 215.803 36.792H219.771C220.112 36.792 220.39 36.664 220.603 36.408C220.859 36.152 220.987 35.8533 220.987 35.512V27.384C220.987 27.0427 220.859 26.744 220.603 26.488C220.39 26.232 220.112 26.104 219.771 26.104H214.011C208.72 26.104 206.075 23.288 206.075 17.656V9.4C206.075 3.768 208.72 0.952 214.011 0.952H221.115C226.406 0.952 229.051 3.768 229.051 9.4V12.472Z" fill="#F9F9F9"/>
</svg>
