<svg width="304" height="48" viewBox="0 0 304 48" fill="none" xmlns="http://www.w3.org/2000/svg">
<path d="M12.872 47.64C10.3547 47.64 8.28533 47.4693 6.664 47.128C5.04267 46.8293 3.74133 46.3813 2.76 45.784C1.82133 45.144 1.16 44.3547 0.776 43.416C0.434667 42.4773 0.264 41.368 0.264 40.088C0.264 39.704 0.285333 39.1707 0.328 38.488C0.370667 37.7627 0.434667 36.76 0.52 35.48C0.605334 34.2 0.712 32.5573 0.84 30.552C1.01067 28.504 1.224 25.944 1.48 22.872C1.77867 19.0747 2.01333 16.0667 2.184 13.848C2.35467 11.6293 2.48267 9.92266 2.568 8.728C2.65333 7.49066 2.696 6.63733 2.696 6.168C2.73867 5.656 2.76 5.22933 2.76 4.888C2.76 4.20533 2.76 3.65067 2.76 3.224C2.80267 2.79733 2.84533 2.47733 2.888 2.264C2.97333 2.008 3.08 1.83733 3.208 1.752C3.37867 1.624 3.61333 1.56 3.912 1.56C6.42933 1.38933 8.56267 1.26133 10.312 1.176C12.104 1.09066 13.6613 1.048 14.984 1.048C18.2267 1.048 21 1.32533 23.304 1.88C25.6507 2.392 27.5493 3.13867 29 4.12C30.4507 5.10133 31.5173 6.31733 32.2 7.768C32.8827 9.21866 33.224 10.8613 33.224 12.696C33.224 13.72 33.1173 14.7867 32.904 15.896C32.6907 16.9627 32.328 17.9867 31.816 18.968C31.304 19.9493 30.6 20.824 29.704 21.592C28.8507 22.3173 27.7627 22.8507 26.44 23.192C28.9147 23.96 30.664 25.24 31.688 27.032C32.712 28.7813 33.224 30.872 33.224 33.304C33.224 35.2667 32.904 37.1227 32.264 38.872C31.624 40.5787 30.5147 42.0933 28.936 43.416C27.3573 44.696 25.2667 45.72 22.664 46.488C20.0613 47.256 16.7973 47.64 12.872 47.64ZM16.52 27.8C16.0507 27.8 15.4747 27.8427 14.792 27.928C14.1093 27.9707 13.4053 28.056 12.68 28.184L11.976 38.616C13.512 39.0853 14.8987 39.32 16.136 39.32C17.4587 39.32 18.5253 39.128 19.336 38.744C20.1467 38.36 20.7653 37.8907 21.192 37.336C21.6613 36.7387 21.96 36.0987 22.088 35.416C22.2587 34.6907 22.344 34.0293 22.344 33.432C22.344 31.8533 21.896 30.5307 21 29.464C20.1467 28.3547 18.6533 27.8 16.52 27.8ZM13.832 10.2C13.7467 11.3093 13.6613 12.6107 13.576 14.104C13.5333 15.5973 13.448 17.2187 13.32 18.968C14.6853 19.3093 15.9013 19.48 16.968 19.48C18.248 19.48 19.272 19.3307 20.04 19.032C20.808 18.7333 21.4053 18.3493 21.832 17.88C22.3013 17.4107 22.6 16.8987 22.728 16.344C22.8987 15.7893 22.984 15.256 22.984 14.744C22.984 13.4213 22.536 12.2907 21.64 11.352C20.7867 10.3707 19.2933 9.88 17.16 9.88C16.6907 9.88 16.1573 9.92266 15.56 10.008C15.0053 10.0507 14.4293 10.1147 13.832 10.2ZM74.022 42.84C74.022 43.1813 73.8087 43.6293 73.382 44.184C72.998 44.696 72.4433 45.208 71.718 45.72C71.0353 46.232 70.2247 46.68 69.286 47.064C68.39 47.448 67.43 47.64 66.406 47.64C64.8273 47.64 63.4407 47.1493 62.246 46.168C61.0513 45.144 59.9633 43.7573 58.982 42.008C58.0433 40.2587 57.1687 38.1893 56.358 35.8C55.5473 33.368 54.7153 30.744 53.862 27.928L51.43 29.528L50.214 46.04C50.1713 46.3813 50.086 46.6373 49.958 46.808C49.83 46.936 49.574 47 49.19 47H45.67C43.238 47 41.51 46.5307 40.486 45.592C39.5047 44.6107 39.014 43.1813 39.014 41.304C39.014 40.7067 39.0353 39.8107 39.078 38.616C39.1633 37.3787 39.27 35.9493 39.398 34.328C39.526 32.664 39.654 30.8507 39.782 28.888C39.9527 26.9253 40.1233 24.92 40.294 22.872C40.5927 18.776 40.8273 15.5333 40.998 13.144C41.2113 10.7547 41.3607 8.87733 41.446 7.512C41.5313 6.104 41.5953 5.08 41.638 4.44C41.6807 3.75733 41.702 3.11733 41.702 2.52C41.702 1.88 42.0433 1.56 42.726 1.56H46.246C47.6113 1.56 48.6993 1.70933 49.51 2.008C50.3633 2.264 51.0247 2.648 51.494 3.16C51.9633 3.672 52.2833 4.312 52.454 5.08C52.6247 5.80533 52.71 6.65867 52.71 7.64C52.71 8.62133 52.646 10.2213 52.518 12.44C52.4327 14.616 52.2833 17.0693 52.07 19.8C53.5207 18.008 55.2487 15.7893 57.254 13.144C59.302 10.4987 61.7767 7.23466 64.678 3.352C64.806 3.18133 64.9767 2.968 65.19 2.712C65.446 2.41333 65.702 2.136 65.958 1.88C66.2567 1.624 66.5553 1.41066 66.854 1.24C67.1953 1.02666 67.5153 0.919998 67.814 0.919998C68.3687 0.919998 69.0087 1.21866 69.734 1.816C70.4593 2.37067 71.142 3.07467 71.782 3.928C72.422 4.73866 72.9553 5.592 73.382 6.488C73.8513 7.34133 74.086 8.06666 74.086 8.664C74.086 9.90133 72.9767 11.7573 70.758 14.232C68.5393 16.664 65.3607 19.48 61.222 22.68C61.9473 23.9173 62.7793 25.2613 63.718 26.712C64.6567 28.12 65.5953 29.5707 66.534 31.064C67.4727 32.5147 68.39 33.944 69.286 35.352C70.182 36.7173 70.9713 37.9547 71.654 39.064C72.3793 40.1307 72.9553 41.0053 73.382 41.688C73.8087 42.3707 74.022 42.7547 74.022 42.84ZM119.465 12.888C119.124 13.912 118.676 15.256 118.121 16.92C117.609 18.5413 117.033 20.3333 116.393 22.296C115.753 24.2587 115.092 26.3493 114.409 28.568C113.726 30.744 113.022 32.8773 112.297 34.968C111.614 37.0587 110.932 39.064 110.249 40.984C109.566 42.8613 108.948 44.504 108.393 45.912C108.222 46.2533 107.86 46.5307 107.305 46.744C106.793 46.9147 105.961 47 104.809 47C104.084 47 103.337 46.9573 102.569 46.872C101.801 46.7867 101.076 46.616 100.393 46.36C99.753 46.104 99.177 45.7627 98.665 45.336C98.1957 44.9093 97.833 44.376 97.577 43.736C96.937 41.56 96.3183 39.1493 95.721 36.504C95.1663 33.816 94.6117 31.0853 94.057 28.312C93.5023 25.5387 92.9477 22.8293 92.393 20.184C91.881 17.496 91.3477 15.064 90.793 12.888C90.793 13.4853 90.7717 14.5093 90.729 15.96C90.6863 17.4107 90.6437 19.096 90.601 21.016C90.5583 22.936 90.4943 25.0053 90.409 27.224C90.3663 29.4427 90.3237 31.6187 90.281 33.752C90.2383 35.8427 90.1957 37.8053 90.153 39.64C90.1103 41.432 90.089 42.904 90.089 44.056C90.089 45.336 90.0037 46.1467 89.833 46.488C89.705 46.8293 89.449 47 89.065 47H85.545C83.113 47 81.385 46.5307 80.361 45.592C79.3797 44.6107 78.889 43.1813 78.889 41.304C78.889 40.792 78.9103 39.9387 78.953 38.744C79.0383 37.5067 79.145 36.056 79.273 34.392C79.401 32.728 79.529 30.9147 79.657 28.952C79.8277 26.9467 79.9983 24.92 80.169 22.872C80.3823 20.0987 80.553 17.7947 80.681 15.96C80.8517 14.0827 80.9797 12.5253 81.065 11.288C81.1503 10.0507 81.2143 9.048 81.257 8.28C81.3423 7.512 81.385 6.82933 81.385 6.232C81.4277 5.63467 81.449 5.08 81.449 4.568C81.4917 4.01333 81.513 3.33066 81.513 2.52C81.513 2.17867 81.641 1.944 81.897 1.816C82.153 1.64533 82.3877 1.56 82.601 1.56H91.561C93.225 1.56 94.5903 1.83733 95.657 2.392C96.7237 2.904 97.5983 3.71466 98.281 4.824C98.9637 5.93333 99.5183 7.384 99.945 9.176C100.372 10.9253 100.756 13.016 101.097 15.448C101.481 17.88 101.886 20.696 102.313 23.896C102.782 27.0533 103.38 30.616 104.105 34.584C104.788 31.9387 105.364 29.7413 105.833 27.992C106.302 26.2427 106.686 24.792 106.985 23.64C107.326 22.4453 107.604 21.464 107.817 20.696C108.03 19.928 108.222 19.224 108.393 18.584C108.564 17.9013 108.756 17.176 108.969 16.408C109.182 15.64 109.438 14.68 109.737 13.528C110.036 12.376 110.398 10.9467 110.825 9.24C111.294 7.49066 111.87 5.29333 112.553 2.648C112.638 2.392 112.788 2.15733 113.001 1.944C113.214 1.688 113.598 1.56 114.153 1.56H124.137C125.502 1.56 126.59 1.70933 127.401 2.008C128.254 2.264 128.916 2.648 129.385 3.16C129.854 3.672 130.174 4.312 130.345 5.08C130.516 5.80533 130.601 6.65867 130.601 7.64C130.601 8.62133 130.537 10.2213 130.409 12.44C130.324 14.616 130.174 17.0907 129.961 19.864C129.79 22.5947 129.598 25.432 129.385 28.376C129.214 31.32 129.022 34.0507 128.809 36.568C128.638 39.0853 128.489 41.2187 128.361 42.968C128.233 44.7173 128.148 45.7413 128.105 46.04C128.062 46.3813 127.977 46.6373 127.849 46.808C127.721 46.936 127.465 47 127.081 47H123.561C121.129 47 119.401 46.5307 118.377 45.592C117.396 44.6107 116.905 43.352 116.905 41.816C116.905 41.3467 116.948 40.4933 117.033 39.256C117.161 38.0187 117.31 36.568 117.481 34.904C117.652 33.24 117.844 31.4267 118.057 29.464C118.27 27.4587 118.462 25.4747 118.633 23.512C118.804 21.5493 118.953 19.6507 119.081 17.816C119.252 15.9387 119.38 14.296 119.465 12.888ZM159.67 0.855999C162.785 0.855999 165.451 1.304 167.67 2.2C169.889 3.05333 171.702 4.33333 173.11 6.04C174.518 7.704 175.542 9.752 176.182 12.184C176.822 14.5733 177.142 17.304 177.142 20.376C177.142 22.0827 177.014 23.9387 176.758 25.944C176.545 27.9493 176.118 29.976 175.478 32.024C174.881 34.0293 174.049 35.9707 172.982 37.848C171.915 39.7253 170.529 41.3893 168.822 42.84C167.158 44.2907 165.153 45.464 162.806 46.36C160.459 47.2133 157.686 47.64 154.486 47.64C150.945 47.64 148.001 47.1067 145.654 46.04C143.35 44.9733 141.494 43.544 140.086 41.752C138.721 39.9173 137.739 37.7627 137.142 35.288C136.587 32.8133 136.31 30.168 136.31 27.352C136.31 24.024 136.694 20.7813 137.462 17.624C138.23 14.424 139.51 11.5867 141.302 9.112C143.137 6.63733 145.547 4.65333 148.534 3.16C151.521 1.624 155.233 0.855999 159.67 0.855999ZM158.326 10.776C156.833 10.776 155.531 11.0533 154.422 11.608C153.355 12.12 152.438 12.824 151.67 13.72C150.945 14.616 150.347 15.6187 149.878 16.728C149.451 17.8373 149.11 18.9893 148.854 20.184C148.598 21.336 148.427 22.4667 148.342 23.576C148.257 24.6427 148.214 25.6027 148.214 26.456C148.214 30.3387 148.854 33.176 150.134 34.968C151.457 36.76 153.313 37.656 155.702 37.656C157.665 37.656 159.265 37.0373 160.502 35.8C161.739 34.52 162.699 33.0053 163.382 31.256C164.107 29.464 164.598 27.6293 164.854 25.752C165.11 23.832 165.238 22.2107 165.238 20.888C165.238 17.7733 164.705 15.32 163.638 13.528C162.571 11.6933 160.801 10.776 158.326 10.776ZM198.336 37.464C199.232 34.4773 200 31.8533 200.64 29.592C201.28 27.3307 201.92 25.0053 202.56 22.616C203.2 20.2267 203.882 17.5387 204.608 14.552C205.333 11.5653 206.25 7.85333 207.36 3.416C207.573 2.60533 207.808 2.09333 208.064 1.88C208.362 1.624 209.002 1.496 209.984 1.496C210.41 1.496 211.072 1.53866 211.968 1.624C212.906 1.66667 213.845 1.85867 214.784 2.2C215.722 2.49866 216.554 2.968 217.28 3.608C218.005 4.20533 218.368 5.08 218.368 6.232C218.368 7.256 218.069 8.83466 217.472 10.968C216.917 13.0587 216.192 15.448 215.296 18.136C214.4 20.824 213.397 23.64 212.288 26.584C211.221 29.4853 210.154 32.2373 209.088 34.84C208.021 37.4427 207.04 39.7253 206.144 41.688C205.29 43.6507 204.65 45.016 204.224 45.784C203.754 46.5947 202.922 47 201.728 47H195.008C193.941 47 193.045 46.808 192.32 46.424C191.637 45.9973 191.061 45.4427 190.592 44.76C190.122 44.0773 189.738 43.3093 189.44 42.456C189.141 41.56 188.885 40.664 188.672 39.768C187.221 33.7093 185.962 28.4613 184.896 24.024C183.872 19.544 183.018 15.8107 182.336 12.824C181.653 9.79467 181.141 7.46933 180.799 5.848C180.458 4.22666 180.288 3.224 180.288 2.84C180.288 2.37066 180.629 2.02933 181.312 1.816C181.994 1.56 183.146 1.432 184.768 1.432C186.474 1.432 187.861 1.60266 188.928 1.944C190.037 2.28533 190.912 2.776 191.552 3.416C192.234 4.01333 192.725 4.73866 193.024 5.592C193.365 6.40267 193.6 7.29867 193.728 8.28C193.856 9.00533 193.984 9.88 194.112 10.904C194.24 11.8853 194.453 13.4 194.752 15.448C195.093 17.496 195.541 20.2693 196.096 23.768C196.65 27.224 197.397 31.7893 198.336 37.464ZM228.483 47C226.093 47 224.387 46.5307 223.363 45.592C222.339 44.6533 221.827 43.3093 221.827 41.56C221.827 40.7067 221.891 39.256 222.019 37.208C222.147 35.1173 222.317 32.7493 222.531 30.104C222.744 27.4587 222.957 24.664 223.171 21.72C223.384 18.776 223.597 16.0027 223.811 13.4C224.024 10.7973 224.195 8.51466 224.323 6.552C224.451 4.58933 224.515 3.24533 224.515 2.52C224.515 1.88 224.856 1.56 225.539 1.56H229.059C231.661 1.56 233.411 2.11466 234.307 3.224C235.203 4.33333 235.651 5.976 235.651 8.152C235.651 8.36533 235.608 9.048 235.523 10.2C235.48 11.352 235.395 12.8027 235.267 14.552C235.139 16.3013 234.989 18.264 234.819 20.44C234.691 22.5733 234.541 24.7707 234.371 27.032C234.243 29.2933 234.093 31.512 233.923 33.688C233.795 35.8213 233.667 37.7627 233.539 39.512C233.411 41.2613 233.304 42.7333 233.219 43.928C233.133 45.08 233.069 45.784 233.027 46.04C232.984 46.3813 232.899 46.6373 232.771 46.808C232.643 46.936 232.387 47 232.003 47H228.483ZM248.608 47C246.218 47 244.512 46.5307 243.488 45.592C242.464 44.6533 241.952 43.3093 241.952 41.56C241.952 40.7067 242.016 39.256 242.144 37.208C242.272 35.1173 242.442 32.7493 242.656 30.104C242.869 27.4587 243.082 24.664 243.296 21.72C243.509 18.776 243.722 16.0027 243.936 13.4C244.149 10.7973 244.32 8.51466 244.448 6.552C244.576 4.58933 244.64 3.24533 244.64 2.52C244.64 1.88 244.981 1.56 245.664 1.56H268.192C268.448 1.56 268.682 1.624 268.896 1.752C269.109 1.88 269.216 2.11466 269.216 2.456L268.96 6.232C268.874 7.512 268.512 8.55733 267.872 9.368C267.274 10.136 266.016 10.52 264.096 10.52H255.264L254.624 19.544H263.712C263.968 19.544 264.202 19.608 264.416 19.736C264.629 19.864 264.736 20.0987 264.736 20.44L264.48 24.216C264.394 25.496 264.032 26.5413 263.392 27.352C262.794 28.12 261.536 28.504 259.616 28.504H254.048L253.344 38.04H267.424C267.68 38.04 267.914 38.1253 268.128 38.296C268.341 38.424 268.448 38.6373 268.448 38.936L268.192 42.712C268.106 43.992 267.744 45.0373 267.104 45.848C266.506 46.616 265.248 47 263.328 47H248.608ZM291.614 0.919998C295.625 0.919998 298.59 1.79467 300.51 3.544C302.473 5.29333 303.454 7.576 303.454 10.392C303.454 12.7813 302.793 14.616 301.47 15.896C300.147 17.1333 298.249 17.752 295.774 17.752C295.006 17.752 294.515 17.688 294.302 17.56C294.089 17.3893 293.982 17.0693 293.982 16.6C293.982 16.1733 293.939 15.6187 293.854 14.936C293.811 14.2533 293.662 13.592 293.406 12.952C293.15 12.312 292.745 11.7787 292.19 11.352C291.635 10.8827 290.867 10.648 289.886 10.648C288.521 10.648 287.305 11.0747 286.238 11.928C285.171 12.7387 284.638 13.8053 284.638 15.128C284.638 16.28 285.065 17.2187 285.918 17.944C286.814 18.6693 287.923 19.352 289.246 19.992C290.569 20.5893 291.998 21.208 293.534 21.848C295.113 22.488 296.563 23.3413 297.886 24.408C299.209 25.432 300.297 26.7333 301.15 28.312C302.046 29.848 302.494 31.8107 302.494 34.2C302.494 36.0773 302.174 37.848 301.534 39.512C300.937 41.1333 300.019 42.5627 298.782 43.8C297.587 44.9947 296.051 45.9333 294.174 46.616C292.339 47.2987 290.185 47.64 287.71 47.64C285.577 47.64 283.593 47.4053 281.758 46.936C279.966 46.4667 278.387 45.8907 277.022 45.208C275.699 44.4827 274.654 43.7147 273.886 42.904C273.118 42.0507 272.734 41.2827 272.734 40.6C272.734 37.784 272.883 35.7573 273.182 34.52C273.523 33.2827 274.121 32.664 274.974 32.664C275.571 32.664 276.19 32.92 276.83 33.432C277.513 33.944 278.281 34.52 279.134 35.16C279.987 35.8 280.969 36.376 282.078 36.888C283.23 37.4 284.553 37.656 286.046 37.656C286.643 37.656 287.219 37.6133 287.774 37.528C288.371 37.4 288.883 37.208 289.31 36.952C289.779 36.696 290.142 36.3547 290.398 35.928C290.697 35.5013 290.846 34.9893 290.846 34.392C290.846 33.3253 290.441 32.472 289.63 31.832C288.819 31.192 287.795 30.616 286.558 30.104C285.321 29.5493 283.977 28.9947 282.526 28.44C281.118 27.8427 279.795 27.0533 278.558 26.072C277.321 25.048 276.297 23.7467 275.486 22.168C274.675 20.5893 274.27 18.5627 274.27 16.088C274.27 13.3147 274.782 10.968 275.806 9.048C276.873 7.128 278.217 5.57067 279.838 4.376C281.502 3.13866 283.358 2.264 285.406 1.752C287.497 1.19733 289.566 0.919998 291.614 0.919998Z" fill="#F9F9F9"/>
</svg>
