<svg width="214" height="47" viewBox="0 0 214 47" fill="none" xmlns="http://www.w3.org/2000/svg">
<path d="M0.816 46C0.645334 46 0.56 45.8933 0.56 45.68L0.688 1.712C0.688 1.54133 0.773334 1.456 0.944 1.456H13.232C15.664 1.456 17.84 2.05333 19.76 3.248C21.68 4.4 23.1947 5.936 24.304 7.856C25.4133 9.776 25.968 11.8667 25.968 14.128C25.968 15.9627 25.5413 17.6693 24.688 19.248C23.8773 20.8267 22.896 22.1067 21.744 23.088C22.9813 24.3253 23.9413 25.7547 24.624 27.376C25.3067 28.9973 25.648 30.704 25.648 32.496C25.648 34.9707 25.0507 37.232 23.856 39.28C22.6613 41.328 21.04 42.9707 18.992 44.208C16.9867 45.4027 14.7467 46 12.272 46H0.816ZM8.368 19.12H13.232C14.7253 19.12 15.92 18.608 16.816 17.584C17.7547 16.5173 18.224 15.3653 18.224 14.128C18.224 12.7627 17.7333 11.5893 16.752 10.608C15.7707 9.584 14.5973 9.072 13.232 9.072H8.368V19.12ZM8.304 38.192H12.272C13.808 38.192 15.1307 37.6373 16.24 36.528C17.3493 35.376 17.904 34.032 17.904 32.496C17.904 30.96 17.3493 29.6373 16.24 28.528C15.1307 27.4187 13.808 26.864 12.272 26.864H8.368L8.304 38.192ZM30.5035 46C30.3328 46 30.2475 45.8933 30.2475 45.68L30.3755 1.776C30.3755 1.56266 30.4608 1.456 30.6315 1.456H37.7995C37.9702 1.456 38.0555 1.56266 38.0555 1.776V16.944L48.1035 1.712C48.2315 1.54133 48.3808 1.456 48.5515 1.456H55.9115C56.0822 1.456 56.1248 1.54133 56.0395 1.712L44.9675 19.376L57.3835 45.744C57.4688 45.9147 57.3622 46 57.0635 46H49.2555C49.0422 46 48.9142 45.9147 48.8715 45.744L40.2315 26.928L37.9915 30.448V45.68C37.9915 45.8933 37.9062 46 37.7355 46H30.5035ZM60.5035 46C60.3328 46 60.2475 45.8933 60.2475 45.68L60.3755 1.712C60.3755 1.54133 60.4608 1.456 60.6315 1.456H68.4395C68.6102 1.456 68.7595 1.54133 68.8875 1.712L74.7115 10.16L80.5355 1.712C80.6635 1.54133 80.8128 1.456 80.9835 1.456H88.8555C89.0262 1.456 89.1115 1.54133 89.1115 1.712L89.2395 45.68C89.2395 45.8933 89.1542 46 88.9835 46H81.7515C81.5808 46 81.4955 45.8933 81.4955 45.68L81.4315 13.04L74.7115 22.768L68.0555 13.04L67.9915 45.68C67.9915 45.8933 67.9062 46 67.7355 46H60.5035ZM106.463 46.64C104.159 46.64 102.047 46.064 100.127 44.912C98.2492 43.7173 96.7345 42.16 95.5825 40.24C94.4305 38.2773 93.8545 36.1227 93.8545 33.776L93.9185 13.488C93.9185 11.1413 94.4732 9.008 95.5825 7.088C96.7345 5.168 98.2705 3.632 100.191 2.48C102.111 1.328 104.201 0.751999 106.463 0.751999C108.767 0.751999 110.857 1.328 112.735 2.48C114.612 3.632 116.105 5.168 117.215 7.088C118.367 9.008 118.943 11.1413 118.943 13.488L119.007 33.776C119.007 36.1227 118.431 38.2773 117.279 40.24C116.169 42.16 114.655 43.7173 112.735 44.912C110.857 46.064 108.767 46.64 106.463 46.64ZM106.463 38.896C107.743 38.896 108.852 38.384 109.791 37.36C110.772 36.2933 111.263 35.0987 111.263 33.776L111.199 13.488C111.199 12.08 110.751 10.8853 109.855 9.904C108.959 8.92267 107.828 8.432 106.463 8.432C105.14 8.432 104.009 8.92267 103.071 9.904C102.132 10.8427 101.663 12.0373 101.663 13.488V33.776C101.663 35.184 102.132 36.4 103.071 37.424C104.009 38.4053 105.14 38.896 106.463 38.896ZM129.666 46C129.495 46 129.388 45.8933 129.345 45.68L120.514 1.712C120.471 1.54133 120.556 1.456 120.77 1.456H128.002C128.172 1.456 128.279 1.54133 128.322 1.712L133.57 31.024L138.69 1.712C138.732 1.54133 138.839 1.456 139.01 1.456H146.178C146.391 1.456 146.476 1.54133 146.434 1.712L137.73 45.68C137.687 45.8933 137.58 46 137.41 46H129.666ZM150.505 46C150.292 46 150.185 45.8933 150.185 45.68L150.249 1.712C150.249 1.54133 150.334 1.456 150.505 1.456H157.673C157.844 1.456 157.929 1.54133 157.929 1.712L157.993 45.68C157.993 45.8933 157.908 46 157.737 46H150.505ZM163.879 46C163.708 46 163.623 45.8933 163.623 45.68L163.687 1.712C163.687 1.54133 163.772 1.456 163.943 1.456H184.487C184.657 1.456 184.743 1.56266 184.743 1.776V8.944C184.743 9.11466 184.657 9.2 184.487 9.2H171.367V19.184H184.487C184.657 19.184 184.743 19.2693 184.743 19.44L184.807 26.672C184.807 26.8427 184.721 26.928 184.551 26.928H171.367V38.128H184.551C184.721 38.128 184.807 38.2347 184.807 38.448V45.744C184.807 45.9147 184.721 46 184.551 46H163.879ZM201.003 46.64C198.699 46.64 196.587 46.064 194.667 44.912C192.789 43.7173 191.275 42.16 190.123 40.24C189.013 38.2773 188.459 36.1227 188.459 33.776V30.832C188.459 30.6187 188.565 30.512 188.779 30.512H195.947C196.117 30.512 196.203 30.6187 196.203 30.832V33.776C196.203 35.184 196.672 36.4 197.611 37.424C198.549 38.4053 199.68 38.896 201.003 38.896C202.325 38.896 203.456 38.384 204.395 37.36C205.333 36.336 205.803 35.1413 205.803 33.776C205.803 32.1973 204.779 30.832 202.731 29.68C202.048 29.296 200.981 28.6987 199.531 27.888C198.08 27.0773 196.715 26.3093 195.435 25.584C193.088 24.2187 191.339 22.512 190.187 20.464C189.077 18.3733 188.523 16.0267 188.523 13.424C188.523 11.0347 189.099 8.90133 190.251 7.024C191.403 5.104 192.917 3.58933 194.795 2.48C196.715 1.37067 198.784 0.815998 201.003 0.815998C203.264 0.815998 205.333 1.392 207.211 2.544C209.131 3.65333 210.645 5.168 211.755 7.088C212.907 8.96533 213.483 11.0773 213.483 13.424V18.672C213.483 18.8427 213.397 18.928 213.227 18.928H206.059C205.888 18.928 205.803 18.8427 205.803 18.672L205.739 13.424C205.739 11.9307 205.269 10.7147 204.331 9.776C203.392 8.83733 202.283 8.368 201.003 8.368C199.68 8.368 198.549 8.88 197.611 9.904C196.672 10.8853 196.203 12.0587 196.203 13.424C196.203 14.832 196.501 16.0053 197.099 16.944C197.696 17.8827 198.784 18.7787 200.363 19.632C200.576 19.76 200.981 19.9947 201.579 20.336C202.219 20.6347 202.901 20.9973 203.627 21.424C204.352 21.808 204.992 22.1493 205.547 22.448C206.144 22.7467 206.507 22.9387 206.635 23.024C208.768 24.2187 210.453 25.6907 211.691 27.44C212.928 29.1467 213.547 31.2587 213.547 33.776C213.547 36.208 212.971 38.4053 211.819 40.368C210.709 42.288 209.195 43.824 207.275 44.976C205.397 46.0853 203.307 46.64 201.003 46.64Z" fill="#F9F9F9"/>
</svg>
