<svg width="279" height="43" viewBox="0 0 279 43" fill="none" xmlns="http://www.w3.org/2000/svg">
<path d="M16 22.7812H5.59375V37.6562H15.1875C17.7292 37.6562 19.6979 37.0417 21.0938 35.8125C22.4896 34.5625 23.1875 32.75 23.1875 30.375C23.1875 28 22.5833 26.1458 21.375 24.8125C20.1875 23.4583 18.3958 22.7812 16 22.7812ZM5.59375 5.40625V18.4688H14.5625C16.6667 18.4688 18.3542 17.8958 19.625 16.75C20.9167 15.6042 21.5625 14.0312 21.5625 12.0312C21.5625 7.61458 18.8542 5.40625 13.4375 5.40625H5.59375ZM15.1875 42H0.0625V1.0625H13.4375C17.8125 1.0625 21.1771 2 23.5312 3.875C25.9062 5.72917 27.0938 8.47917 27.0938 12.125C27.0938 13.9375 26.5208 15.5625 25.375 17C24.2292 18.4375 22.6875 19.5 20.75 20.1875C23.2083 20.7292 25.1458 21.9375 26.5625 23.8125C28 25.6667 28.7188 27.875 28.7188 30.4375C28.7188 34.1667 27.5208 37.0312 25.125 39.0312C22.75 41.0104 19.4375 42 15.1875 42ZM42.4062 23.5312V42H36.875V1.0625H42.4062V19.1562H46.6875L61.3438 1.0625H67.4688L67.5625 1.1875L51.6562 20.8438L68.7188 41.8438L68.625 42H62.0312L47.1875 23.5312H42.4062ZM73.9375 1.0625H81.0312L94.0625 34.3125H94.25L107.281 1.0625H114.375V42H108.844V25.8125L109.406 9.15625L109.25 9.125L96 42H92.3125L79.0938 9.21875H78.9375L79.4688 25.8125V42H73.9375V1.0625ZM150.031 25.25V17.9062C150.031 14.0938 149.01 11.0104 146.969 8.65625C144.927 6.28125 142.26 5.09375 138.969 5.09375C135.677 5.09375 133.062 6.28125 131.125 8.65625C129.188 11.0312 128.219 14.1146 128.219 17.9062V25.25C128.219 29.0833 129.177 32.1875 131.094 34.5625C133.031 36.9375 135.656 38.125 138.969 38.125C142.281 38.125 144.948 36.9479 146.969 34.5938C149.01 32.2188 150.031 29.1042 150.031 25.25ZM155.562 17.9688V25.25C155.562 30.3125 154.01 34.4792 150.906 37.75C147.802 41.0208 143.812 42.6562 138.938 42.6562C134.083 42.6562 130.156 41.0208 127.156 37.75C124.177 34.4792 122.688 30.3125 122.688 25.25V17.9688C122.688 12.9062 124.177 8.73958 127.156 5.46875C130.156 2.17708 134.083 0.53125 138.938 0.53125C143.812 0.53125 147.802 2.16667 150.906 5.4375C154.01 8.70833 155.562 12.8854 155.562 17.9688ZM165.375 1.0625L175.969 31.8125L176.906 35.0625H177.062L178 31.8125L188.562 1.0625H194.562L179.344 42H174.594L159.375 1.0625H165.375ZM206.094 1.0625V42H200.531V1.0625H206.094ZM240.875 18.6562V23H222.094V37.6562H243.719V42H216.562V1.0625H243.438V5.40625H222.094V18.6562H240.875ZM253.406 30.2812C253.406 32.8438 254.333 34.8229 256.188 36.2188C258.062 37.6146 260.448 38.3125 263.344 38.3125C266.24 38.3125 268.5 37.7292 270.125 36.5625C271.75 35.375 272.562 33.7917 272.562 31.8125C272.562 29.8333 271.833 28.2188 270.375 26.9688C268.938 25.7188 266.469 24.6771 262.969 23.8438C253.781 21.6354 249.188 17.5938 249.188 11.7188C249.188 8.48958 250.5 5.82292 253.125 3.71875C255.75 1.59375 259.188 0.53125 263.438 0.53125C267.708 0.53125 271.198 1.72917 273.906 4.125C276.615 6.52083 277.917 9.39583 277.812 12.75L277.75 12.9375H272.469C272.469 10.4792 271.667 8.52083 270.062 7.0625C268.458 5.60417 266.24 4.875 263.406 4.875C260.594 4.875 258.438 5.48958 256.938 6.71875C255.458 7.92708 254.719 9.5 254.719 11.4375C254.719 13.3542 255.51 14.9062 257.094 16.0938C258.677 17.2604 261.271 18.3021 264.875 19.2188C273.688 21.4479 278.094 25.6042 278.094 31.6875C278.094 35 276.75 37.6562 274.062 39.6562C271.375 41.6562 267.844 42.6562 263.469 42.6562C260.698 42.6562 258.135 42.1771 255.781 41.2188C253.448 40.2396 251.562 38.8021 250.125 36.9062C248.688 35.0104 248 32.8542 248.062 30.4375L248.125 30.2812H253.406Z" fill="#F9F9F9"/>
</svg>
